<?xml version="1.0" encoding="utf-8"?>
<!-- Generator: Adobe Illustrator 23.0.2, SVG Export Plug-In . SVG Version: 6.00 Build 0)  -->
<svg version="1.1" id="b52d7e2d-d80f-4111-b6ed-d15502ee1edd"
	 xmlns="http://www.w3.org/2000/svg" xmlns:xlink="http://www.w3.org/1999/xlink" x="0px" y="0px" viewBox="0 0 711.2 669.7"
	 style="enable-background:new 0 0 711.2 669.7;" xml:space="preserve">
<style type="text/css">
	.st0{fill-rule:evenodd;clip-rule:evenodd;fill:#755238;}
	.st1{fill:#E6E6E6;}
	.st2{opacity:0.1;enable-background:new    ;}
	.st3{display:none;fill:#E6E6E6;}
	.st4{fill:#3F3D56;}
	.st5{fill:#F2F2F2;}
	.st6{fill:#755238;}
	.st7{fill:#2F2E41;}
	.st8{fill:#1FB21F;}
	.st9{fill-rule:evenodd;clip-rule:evenodd;fill-opacity:0.16;}
	.st10{fill-rule:evenodd;clip-rule:evenodd;fill:#2F2E41;fill-opacity:0.7;}
	.st11{fill-rule:evenodd;clip-rule:evenodd;fill-opacity:0.6;}
	.st12{fill-opacity:0.6;}
</style>
<path id="path-3" class="st0" d="M105.2,14.1c17.7,0,32,14,32,31.4V49c3.2,0.5,5.7,3.3,5.7,6.6v7.8c0,3.4-2.6,6.2-5.9,6.7
	c-1.2,11.1-8.3,20.5-18.1,25.1v10.3h2.3c22.7,0,41.1,18.1,41.1,40.3v5H48v-5c0-22.3,18.4-40.3,41.1-40.3h2.3V95.2
	c-9.8-4.6-16.9-14-18.1-25.1c-3.3-0.5-5.9-3.3-5.9-6.7v-7.8c0-3.3,2.5-6.1,5.7-6.6v-3.5C73.2,28.1,87.5,14.1,105.2,14.1z"/>
<path id="path-3_1_" class="st0" d="M105.2,14.1c17.7,0,32,14,32,31.4V49c3.2,0.5,5.7,3.3,5.7,6.6v7.8c0,3.4-2.6,6.2-5.9,6.7
	c-1.2,11.1-8.3,20.5-18.1,25.1v10.3h2.3c22.7,0,41.1,18.1,41.1,40.3v5H48v-5c0-22.3,18.4-40.3,41.1-40.3h2.3V95.2
	c-9.8-4.6-16.9-14-18.1-25.1c-3.3-0.5-5.9-3.3-5.9-6.7v-7.8c0-3.3,2.5-6.1,5.7-6.6v-3.5C73.2,28.1,87.5,14.1,105.2,14.1z"/>
<title>feeling_proud</title>
<polygon class="st1" points="516.3,380 516.3,565 547.3,615.4 549.6,619.3 671.7,619.3 674.2,380 "/>
<polygon class="st2" points="516.3,380 516.3,565 547.3,615.4 549.2,380 "/>
<polygon class="st1" points="221.6,375.1 221.6,560.1 190.6,610.5 188.3,614.3 66.2,614.3 63.7,375.1 "/>
<polygon class="st2" points="221.6,375.1 221.6,560.1 190.6,610.5 188.7,375.1 "/>
<polygon class="st3" points="711.2,371.4 711.2,382.5 47.7,382.5 47.7,366.5 109.3,334.4 656.9,334.4 "/>
<polygon class="st2" points="711.2,371.4 711.2,382.5 47.7,382.5 47.7,366.5 "/>
<polygon class="st4" points="142.6,426.9 113,426.9 100.7,418.3 156.2,418.3 "/>
<polygon class="st4" points="142.6,462.6 113,462.6 100.7,454 156.2,454 "/>
<polygon class="st4" points="142.6,513.2 113,513.2 100.7,504.6 156.2,504.6 "/>
<polygon class="st4" points="142.6,563.8 113,563.8 100.7,555.1 156.2,555.1 "/>
<polygon class="st4" points="595.3,431.8 624.9,431.8 637.2,423.2 581.7,423.2 "/>
<polygon class="st4" points="595.3,467.6 624.9,467.6 637.2,458.9 581.7,458.9 "/>
<polygon class="st4" points="595.3,518.1 624.9,518.1 637.2,509.5 581.7,509.5 "/>
<polygon class="st4" points="595.3,568.7 624.9,568.7 637.2,560.1 581.7,560.1 "/>
<path class="st4" d="M615.4,120.5H366.2c-5.2,0-9.4,4.2-9.4,9.4l0,0v167.9c0,5.2,4.2,9.4,9.4,9.4l0,0h94.6l-3.5,22.6
	c0,0-20.3,10.8-6,11.1s81.3,0,81.3,0s13,0-7.6-11.4l-3.3-22.3h93.7c5.2,0,9.4-4.2,9.4-9.4l0,0V129.9
	C624.8,124.7,620.6,120.5,615.4,120.5L615.4,120.5z"/>
<rect x="365.8" y="130.4" class="st5" width="250" height="139.9"/>
<circle class="st5" cx="490.8" cy="126" r="1.6"/>
<circle class="st5" cx="490.8" cy="294.3" r="6"/>
<polygon class="st4" points="481.5,358 481.5,361.1 311.2,361.1 311.2,358.6 311.4,358 315.6,346.6 478,346.6 "/>
<path class="st4" d="M547,354.9c-0.3,1.3-1.5,2.7-4.1,4c-9.5,4.7-28.8-1.3-28.8-1.3s-14.9-2.5-14.9-9.2c0.4-0.3,0.9-0.5,1.3-0.8
	c4-2.1,17.2-7.3,40.7,0.2c1.7,0.5,3.3,1.6,4.5,2.9C546.7,351.9,547.2,353.4,547,354.9z"/>
<path class="st2" d="M547,354.9c-11.6,4.5-22,4.8-32.6-2.6c-4-3-8.9-4.6-13.9-4.6c4-2.1,17.2-7.3,40.7,0.2c1.7,0.5,3.3,1.6,4.5,2.9
	C546.7,351.9,547.2,353.4,547,354.9z"/>
<ellipse class="st5" cx="532.4" cy="351" rx="4.1" ry="1.3"/>
<polygon class="st2" points="481.5,358 481.5,361.1 311.2,361.1 311.2,358.6 311.4,358 "/>
<path class="st6" d="M81.7,75.6c0,0,3.5,28.8-9.2,31.1S84,148.1,84,148.1l57.6,6.9l-13.8-46c0,0-9.2-3.5-3.5-26.5
	S81.7,75.6,81.7,75.6z"/>
<polygon class="st6" points="47,569.3 51.6,632.6 75.8,632.6 68.9,569.3 "/>
<polygon class="st6" points="224.3,449.6 227.8,502.6 254.2,491 243.9,447.3 "/>
<path class="st7" d="M29.8,327.6c0,0,1.2,66.8,8.1,88.6s5.8,23,4.6,26.5s-2.3,1.2-2.3,6.9s-2.3,96.7,0,104.8s-6.7,71.2,0.2,72.4
	s39.1,0,40.3-6.9s-9.4-58.6-4.8-63.2c4.6-4.6,11.5-99,11.5-99l16.1-65.6l29.9-34.5h63.3l22.6,105.6c0,0-8.1,21.9-2.3,21.9
	s40.3,6.9,40.3-18.4s-14.5-129.8-16.8-132.1s1.2-10.4-2.3-13.8s-43.7-27.6-58.7-32.2s-36-10.1-36-10.1L29.8,327.6z"/>
<path class="st7" d="M254.2,481.8c0,0-17.3-5.8-25.3,11.5s-4.6,21.9-4.6,21.9s26.5,9.2,31.1,4.6c2-2,8.4-2.7,14.9-2.8
	c10-0.2,12.6-14.3,3.2-17.6c-0.3-0.1-0.6-0.2-0.9-0.3C263.4,496.8,254.2,481.8,254.2,481.8z"/>
<path class="st8" d="M63.1,120.4c0,0,56.4,11.5,70.2-6.9s19.6,51.8,19.6,51.8l6.9,73.7l-10.4,40.3c0,0-54.1,43.7-71.4,47.2
	s-43.7,5.8-43.7,5.8s8.1-127.8,8.1-130.1S63.1,120.4,63.1,120.4z"/>
<path class="st7" d="M80.3,98.8c0,0-12.5-7.2-16-0.3s-35.7,24.2-39.1,24.2s6.9,95.5,2.3,107.1S1,325.3,13.6,332.2s3.5-6.9,16.1,10.4
	s74.8,17.3,78.3,10.4s-27.6-58.7-21.9-107.1s15-115.1,6.9-124.3S80.3,98.8,80.3,98.8z"/>
<path class="st7" d="M121.9,106.6l1.6-5.5c0,0,47.9,15.9,50.2,26.2s1.2,82.9-6.9,88.6s-19.6,15-11.5,28.8s17.3,28.8,24.2,29.9
	s19.6,9.2,16.1,17.3s-44.9-6.9-44.9-6.9s-27.6-20.7-26.5-53S121.9,106.6,121.9,106.6z"/>
<path class="st6" d="M162.1,242.4l-27.6,51.8c0,0-40.3,41.4-17.3,46s35.7-38,35.7-38l29.9-42.6L162.1,242.4z"/>
<path class="st7" d="M162.1,122.7l10.7,2.8c0,0,25,63.9,19.2,107.7s-9.2,34.5-9.2,34.5s-9.2-20.7-29.9-16.1L162.1,122.7z"/>
<path class="st7" d="M48.6,624.3c-2.8,3.8-2.2,9.2-4.7,13.2c-2.1,3.5-6.1,5.3-8.8,8.3c-0.9,1-1.6,2.1-2.3,3.3
	c-2.5,4.1-4.5,9.5-2,13.6c2,3.4,6.1,4.7,9.9,5.6c4.8,1.1,9.7,2,14.6,1.2s9.5-3.8,11.3-8.4c0.3-1.2,0.7-2.3,1.2-3.4
	c2.6-5.2,10.8-5.2,13.5-10.3c1.9-3.6,0.2-7.9-1.6-11.6l-5.3-11.2c-1.7-3.7-8.8-1.6-12.5-2.5C57.1,620.8,52.1,619.5,48.6,624.3z"/>
<path class="st6" d="M10.2,265.4l48.3,74.8c0,0,29.9,38,39.1,20.7s-32.2-46-32.2-46l-31.1-57.6L10.2,265.4z"/>
<path class="st7" d="M34.4,125l-9.2-2.3c0,0-18.4,5.8-23,29.9S1,273.5,6.7,274.6s28.4-16.8,32.1-13s-7.9-15.8-4.4-26.1
	S34.4,125,34.4,125z"/>
<g transform="translate(112.000000, 122.000000) scale(1 1)">
	<g id="g-3">
		<path id="g-2" class="st9" d="M-11.5-56.2c0,2.1,2.6,3.8,5.7,3.8l0,0c3.2,0,5.7-1.7,5.7-3.8"/>
	</g>
</g>
<g transform="translate(86.000000, 134.000000) scale(1 1)">
	<g id="g-7">
		<path id="g-6" class="st10" d="M13.5-59.1c0,3.7,3,6.7,6.7,6.7l0,0c3.7,0,6.7-3,6.7-6.7"/>
	</g>
</g>
<g id="g-8" transform="translate(84.000000, 90.000000) scale(1 1)">
	<g id="g-9">
		<path id="path-9" class="st11" d="M3.2-32.5c0.9-1.8,2.9-3.1,5.2-3.1s4.3,1.3,5.2,3.1c0.3,0.5-0.1,1-0.5,0.6
			c-1.2-1-2.8-1.6-4.7-1.6c-1.8,0-3.4,0.6-4.6,1.5C3.4-31.6,3-32,3.2-32.5z"/>
		<path class="st11" d="M30.9-32.5c0.9-1.8,2.9-3.1,5.2-3.1s4.3,1.3,5.2,3.1c0.3,0.5-0.1,1-0.5,0.6c-1.2-1-2.8-1.6-4.7-1.6
			c-1.8,0-3.4,0.6-4.6,1.5C31.1-31.6,30.6-32,30.9-32.5z"/>
	</g>
</g>
<g id="g-10" transform="translate(84.000000, 82.000000) scale(1 1)">
	<g id="g-11">
		<g id="g-12" transform="translate(12.000000, 6.000000)">
			<path id="path-10" class="st12" d="M-9.8-36.2c2.1-2.9,7.8-4.6,12.7-3.4c0.6,0.1,1.1-0.2,1.3-0.8C4.3-41,4-41.5,3.4-41.7
				c-5.7-1.4-12.3,0.5-15,4.2c-0.3,0.5-0.2,1.1,0.3,1.5S-10.2-35.7-9.8-36.2z"/>
			<path class="st12" d="M33.2-36.2c-2.1-2.9-7.8-4.6-12.7-3.4c-0.6,0.1-1.1-0.2-1.3-0.8s0.2-1.1,0.8-1.3c5.7-1.4,12.3,0.5,15,4.2
				c0.3,0.5,0.2,1.1-0.3,1.5S33.5-35.7,33.2-36.2z"/>
		</g>
	</g>
</g>
<path class="st7" d="M75.5,55.9c0.8,0,1.3-5.2,2.5-15.7c0,0,0.5-4.5,2.9-12.2c0.7-2.3,1.4-4.1,2.9-4.7c1.8-0.6,3.5,0.9,6.1,2.5
	c2.1,1.3,7.6,4.7,13.1,5c3.3,0.2,7.7-0.6,11.5-2.9c3.3-2,5.7-4.8,7.9-4c0.4,0.2,0.4,0.3,2,1.6c2.6,2.1,2.8,1.9,4,3.1
	c0.8,0.8,2.9,2.7,3.4,5.6c0.2,1.2,0,1.7,0,2.9c-0.1,3.6,1.3,5.4,2.5,9c2,5.9,1.3,9.9,1.8,9.9c0.7,0,1.8-6.4,1.6-13.3
	c-0.1-4.2-0.3-9.9-3.2-16.4c-1.4-3.2-4.4-9.7-11.7-14.4C115.6,7.2,108.4,7,105.3,7c-10.1,0.3-17,5.5-20,7.9
	c-2.7,2.1-8.5,6.8-11.2,14.9c-1.6,5-1.4,9.3-1.1,14.2C73.5,49.7,74.7,55.9,75.5,55.9z"/>
<path class="st7" d="M73.7,64.7c0.3,0,0.6,1.2,1.6,5c1.3,5,2.2,8.4,2.3,8.8c2,7.4,7.9,12.5,9,13.5c1.5,1.3,7.8,6.3,17.1,6.8
	c2.1,0.1,6.2,0.3,11-1.6c5.4-2.2,8.4-5.8,11.9-10.1c4.6-5.6,7.1-11.2,8.3-13.9c2-4.6,2.9-8,3.2-7.9c0.4,0.1-0.2,4.9-1.6,9.7
	c-1.9,6.2-4.6,10.1-9.4,16.9c-4.6,6.5-6.9,9.9-11.2,12.6c-2.4,1.6-5.3,3.4-9.4,3.6c-6.8,0.3-11.9-4.3-13.1-5.4
	c-2.2-2-1.9-2.6-5.9-6.7c-3.6-3.7-3.8-3.1-5.8-5.4c-3.5-4.1-5.1-8.3-6.1-11.2c-1.4-3.9-1.8-6.8-2-7.7C73.3,68.5,73.3,64.8,73.7,64.7
	z"/>
</svg>
