<?xml version="1.0" encoding="utf-8"?>
<!-- Generator: Adobe Illustrator 23.0.2, SVG Export Plug-In . SVG Version: 6.00 Build 0)  -->
<svg version="1.1" id="Layer_1" xmlns="http://www.w3.org/2000/svg" xmlns:xlink="http://www.w3.org/1999/xlink" x="0px" y="0px"
	 viewBox="0 0 750.7 705.7" style="enable-background:new 0 0 750.7 705.7;" xml:space="preserve">
<style type="text/css">
	.st0{fill:#2DA82A;}
	.st1{fill-rule:evenodd;clip-rule:evenodd;fill:#755238;}
	.st2{fill-rule:evenodd;clip-rule:evenodd;fill-opacity:0.24;}
	.st3{fill-rule:evenodd;clip-rule:evenodd;fill-opacity:0.16;}
	.st4{fill-rule:evenodd;clip-rule:evenodd;fill:#191227;}
	.st5{fill-rule:evenodd;clip-rule:evenodd;fill:#F4F4F4;}
	.st6{fill-rule:evenodd;clip-rule:evenodd;fill-opacity:0.7;}
	.st7{fill-rule:evenodd;clip-rule:evenodd;fill-opacity:0.6;}
	.st8{fill-opacity:0.6;}
	.st9{fill:#000002;}
</style>
<path class="st0" d="M752.1,449.6c0,99.6-45.6,189.4-118.6,252.6c-1.2-1.3-2.4-2.6-3.7-3.9c-5.7-5.7-12.5-10.9-19.6-13.7
	c-6.8-2.6-7.5-2.2-21.9-2.9c-39.8-2-221.4-1.1-281.6,0c-34.6,0.6-48.8,0-70.4,2.9c-19.8,2.7-43.9,12.1-54.8,13
	c-5.7,0.5-5.9-1.1-11-1.4c-7.7-0.5-22.6-2-32.8,0c-6.6,1.3-13.7,3.3-19.8,6.3C44.8,639.2-0.9,549.4-0.9,449.6
	C-0.9,258.2,167.7,103,375.6,103S752.1,258.2,752.1,449.6z"/>
<g id="g-1" transform="matrix(1, 0, 0, 1, 50.073609, -52.179775)">
	<path id="path-3" class="st1" d="M325.3,90.2c87,0,157.5,68.1,157.5,152.1V259c16,2.6,28.1,16,28.1,32.1v38c0,16.4-12.6,30-29,32.3
		c-5.8,53.8-40.7,99.2-89.1,121.5v49.9H404c111.8,0,202.5,87.5,202.5,195.5v24.4H44v-24.4c0-108,90.7-195.5,202.5-195.5h11.2v-49.9
		c-48.5-22.2-83.3-67.7-89.1-121.5c-16.4-2.2-29-15.8-29-32.3v-38c0-16.1,12.2-29.5,28.1-32.1v-16.7
		C167.8,158.3,238.3,90.2,325.3,90.2z"/>
	<path id="path-4" class="st2" d="M257.8,482.9c20.5,9.4,43.3,14.6,67.5,14.6s47-5.3,67.5-14.6v14.5c-18.4,12.1-40.7,19.2-64.7,19.2
		c-26.5,0-50.9-8.6-70.3-23.1V482.9z"/>
	<g transform="translate(112.000000, 122.000000) scale(1 1)">
		<g id="g-3">
			<path id="g-2" class="st3" d="M179.5,223.5c0,12,15.1,21.7,33.7,21.7l0,0c18.6,0,33.7-9.7,33.7-21.7"/>
		</g>
	</g>
	<g id="g-4" transform="translate(8.000000, 170.000000) scale(1 1)">
		<g id="g-5">
			<path id="path-6" class="st4" d="M384.8,319.6c50.9,5.5,90,20.6,90,59.8v-1.2c72.7,29.7,123.8,99.2,123.8,180.2v24.4H36v-24.4
				c0-81,51-150.5,123.8-180.2c0.8-38.3,39.6-53.1,90-58.6V371c0,36,30.2,65.2,67.5,65.2s67.5-29.2,67.5-65.2l0,0L384.8,319.6z"/>
			<path id="path-7" class="st5" d="M232.9,451.7v131h-19.7V441.9C219.4,445.5,226,448.8,232.9,451.7z M421.3,442v109.6
				c0,5.2-4.4,9.5-9.8,9.5s-9.8-4.3-9.8-9.5v-99.8C408.5,448.8,415.1,445.5,421.3,442z"/>
			<path id="path-8" class="st3" d="M432.7,318.6c42.3,7.7,71.6,23.1,71.6,53.2c0,53.5-92.9,96.9-187,96.9s-187-43.4-187-96.9
				c0-30,29.3-45.4,71.6-53.2c-25.5,9.1-42.1,24.4-42.1,49.8c0,55.4,78.2,100.3,157.5,100.3s157.5-44.9,157.5-100.3
				c0-24.9-15.8-40.1-40.5-49.3L432.7,318.6z"/>
		</g>
	</g>
	<g transform="translate(86.000000, 134.000000) scale(1 1)">
		<g id="g-7">
			<path id="g-6" class="st6" d="M199.9,263.1c0,21,17.6,38,39.4,38l0,0c21.7,0,39.4-17,39.4-38"/>
		</g>
	</g>
	<g id="g-8" transform="translate(84.000000, 90.000000) scale(1 1)">
		<g id="g-9">
			<path id="path-9" class="st7" d="M129.2,207.8c5.2-10.3,16.9-17.5,30.5-17.5c13.5,0,25.2,7.1,30.4,17.4c1.6,3-0.7,5.5-2.9,3.7
				c-6.9-5.7-16.7-9.3-27.5-9.3c-10.5,0-20,3.4-26.9,8.8C130.3,212.9,127.7,210.8,129.2,207.8z"/>
			<path class="st7" d="M292.3,207.8c5.2-10.3,16.9-17.5,30.5-17.5c13.5,0,25.2,7.1,30.4,17.4c1.6,3-0.7,5.5-2.9,3.7
				c-6.9-5.7-16.7-9.3-27.5-9.3c-10.5,0-20,3.4-26.9,8.8C293.4,212.9,290.8,210.8,292.3,207.8z"/>
		</g>
	</g>
	<g id="g-10" transform="translate(84.000000, 82.000000) scale(1 1)">
		<g id="g-11">
			<g id="g-12" transform="translate(12.000000, 6.000000)">
				<path id="path-10" class="st8" d="M115.7,173.7c11-15,41.2-23.3,67.2-17.2c3,0.7,6.1-1.1,6.8-4s-1.1-5.9-4.1-6.6
					c-30.2-7.2-65.2,2.6-79.1,21.4c-1.8,2.4-1.2,5.8,1.3,7.6C110.4,176.8,113.9,176.2,115.7,173.7z"/>
				<path class="st8" d="M342.8,173.7c-11-15-41.2-23.3-67.2-17.2c-3,0.7-6.1-1.1-6.8-4c-0.7-2.9,1.1-5.9,4.1-6.6
					c30.2-7.2,65.2,2.6,79.1,21.4c1.8,2.4,1.2,5.8-1.3,7.6S344.6,176.2,342.8,173.7z"/>
			</g>
		</g>
	</g>
	<g id="g-13" transform="translate(57.000000, 72.000000) scale(1 1)">
		<g id="g-14">
		</g>
	</g>
	<g id="g-16" transform="translate(70.000000, 85.000000) scale(1 1)">
		<g id="g-17">
		</g>
	</g>
	<path class="st9" d="M177.2,286.2c3.8-0.1,6.6-24.6,12.4-73.5c0,0,2.5-20.9,14.2-57.4c3.5-10.9,6.7-19.4,14.2-22
		c8.7-3,17.1,4.2,30.1,11.8c10.1,6,37.2,22,64.6,23.7c16.2,1,37.9-2.8,56.6-13.5c16.1-9.3,27.9-22.6,38.9-18.6
		c2.1,0.7,1.8,1.3,9.7,7.6c12.6,10,13.6,9.1,19.5,14.4c4.1,3.7,14.2,12.8,16.8,26.2c1.1,5.5,0.2,8.2,0,13.5
		c-0.7,16.7,6.4,25.5,12.4,42.2c9.9,27.5,6.2,46.4,8.8,46.5c3.3,0.1,9-30,8-62.5c-0.7-19.8-1.5-46.3-15.9-76.9
		c-7.1-15-21.9-45.4-57.5-67.6c-35.2-21.9-70.6-23.2-85.8-22.8c-49.8,1.3-83.3,25.9-98.2,37.2c-13.1,9.9-41.9,31.7-54.8,70.1
		c-7.9,23.4-6.7,43.5-5.3,66.7C167.2,256.9,172.9,286.3,177.2,286.2z"/>
	<path d="M169.1,352c1.2-0.1,2.9,4.8,7.9,20.5c6.4,20.2,10.9,34.3,11.4,35.9c9.6,30,38.3,51.1,43.8,55c7.4,5.3,37.8,25.8,83.2,27.9
		c10.2,0.5,30.4,1.2,53.4-6.6c26.3-8.9,40.9-23.8,57.8-41.1c22.5-23,34.6-45.7,40.3-56.5c9.8-18.7,14.1-32.6,15.8-32.3
		c2,0.4-0.8,20.1-7.9,39.6c-9.2,25.1-22.4,41.3-45.6,69c-22.3,26.7-33.8,40.2-54.3,51.4c-11.8,6.4-25.8,14-45.6,14.7
		c-32.9,1.1-58-17.6-64-22c-10.9-8.1-9.3-10.5-28.9-27.1c-17.5-14.9-18.5-12.8-28-22c-17.2-16.6-24.7-33.7-29.8-45.5
		c-6.9-15.8-9-27.6-9.6-31.5C166.9,367.5,167,352.2,169.1,352z"/>
</g>
</svg>
